<?xml version="1.0" standalone="no"?>
<!DOCTYPE svg PUBLIC "-//W3C//DTD SVG 20010904//EN"
 "http://www.w3.org/TR/2001/REC-SVG-20010904/DTD/svg10.dtd">
<svg version="1.0" xmlns="http://www.w3.org/2000/svg"
 width="512.000000pt" height="513.000000pt" viewBox="0 0 512.000000 513.000000"
 preserveAspectRatio="xMidYMid meet">
<metadata>
Created by potrace 1.16, written by Peter Selinger 2001-2019
</metadata>
<g transform="translate(0.000000,513.000000) scale(0.100000,-0.100000)"
fill="#000000" stroke="none">
<path d="M2335 5083 c-104 -9 -320 -48 -430 -78 -972 -267 -1689 -1075 -1836
-2070 -99 -674 74 -1359 481 -1900 353 -470 854 -798 1425 -935 184 -44 312
-61 525 -67 600 -17 1167 170 1642 542 107 85 352 335 435 445 373 498 548
1077 512 1692 -21 355 -104 670 -261 983 -245 491 -638 885 -1124 1129 -367
184 -732 268 -1149 264 -99 -1 -198 -3 -220 -5z m855 -1382 l0 -229 -157 -4
c-172 -4 -200 -11 -237 -61 -19 -25 -21 -45 -24 -203 l-4 -174 216 0 c119 0
216 -3 216 -7 0 -18 -41 -410 -46 -430 -4 -23 -5 -23 -194 -23 l-190 0 0 -690
0 -690 -280 0 -280 0 0 690 0 690 -140 0 -140 0 0 230 0 230 139 0 138 0 6
223 c6 242 16 305 67 412 33 68 121 160 186 193 108 55 208 69 497 71 l227 1
0 -229z"/>
</g>
</svg>
