<?xml version="1.0" standalone="no"?>
<!DOCTYPE svg PUBLIC "-//W3C//DTD SVG 20010904//EN"
 "http://www.w3.org/TR/2001/REC-SVG-20010904/DTD/svg10.dtd">
<svg version="1.0" xmlns="http://www.w3.org/2000/svg"
 width="512.000000pt" height="512.000000pt" viewBox="0 0 512.000000 512.000000"
 preserveAspectRatio="xMidYMid meet">
<metadata>
Created by potrace 1.16, written by Peter Selinger 2001-2019
</metadata>
<g transform="translate(0.000000,512.000000) scale(0.100000,-0.100000)"
fill="#000000" stroke="none">
<path d="M2300 5049 c-678 -74 -1310 -435 -1717 -981 -261 -350 -423 -751
-484 -1198 -17 -122 -18 -506 -1 -625 44 -315 122 -575 249 -829 364 -727
1045 -1225 1854 -1353 178 -28 587 -25 769 6 989 169 1777 898 2014 1864 54
218 69 353 70 602 0 243 -9 341 -50 540 -55 270 -162 542 -307 785 -376 627
-1023 1061 -1752 1175 -128 20 -512 29 -645 14z m535 -210 c753 -80 1429 -559
1776 -1259 163 -329 239 -659 239 -1040 0 -730 -337 -1405 -920 -1841 -242
-181 -561 -331 -850 -398 -242 -56 -572 -72 -811 -37 -501 71 -948 295 -1304
651 -269 268 -436 542 -568 925 -31 91 -60 212 -89 380 -21 121 -17 569 6 695
74 408 210 725 440 1032 106 141 313 349 449 450 485 359 1027 506 1632 442z"/>
<path d="M1180 3691 c-82 -25 -159 -101 -181 -178 -12 -39 -14 -214 -13 -978
1 -922 1 -930 21 -975 48 -102 126 -151 251 -158 l84 -5 -8 857 c-5 610 -4
856 4 856 6 0 280 -187 609 -416 329 -230 606 -419 616 -422 10 -2 25 2 35 11
20 18 1182 817 1188 817 2 0 4 -383 4 -851 l0 -852 79 7 c156 13 233 54 268
144 17 44 18 103 18 1002 l0 955 -27 51 c-42 80 -122 134 -200 134 -37 0 -62
-16 -287 -184 -639 -477 -1067 -787 -1081 -783 -16 4 -1248 914 -1291 953 -26
25 -46 28 -89 15z"/>
</g>
</svg>
